# xmcd CD database file
#
# Track frame offsets:
#	183
#	14933
#	31020
#	59538
#	66480
#	83203
#	107403
#	119795
#	143933
#	156250
#	176213
#	196678
#	211635
#	220305
#
# Disc length: 3079 seconds
#
# Revision: 0
# Processed by: cddbd v1.5.1PL2 Copyright (c) Steve Scherf et al.
# Submitted via: CDex 1.51
#
DISCID=d20c050e
DTITLE=danny weiss quartett - danny weiss quartett
DYEAR=1993
DGENRE=Jazz
TTITLE0=melancholy baby
TTITLE1=undecided
TTITLE2=nuages
TTITLE3=sweet Sue
TTITLE4=on the sunny side of the street
TTITLE5=fly me to the moon
TTITLE6=sweet georgia brown
TTITLE7=deep purple
TTITLE8=schwarze augen
TTITLE9=tea for two
TTITLE10=i'm in the mood for love
TTITLE11=all of me
TTITLE12=durch dich wird diese welt erst schön
TTITLE13=caravan
EXTD=YEAR: 1993
EXTT0=
EXTT1=
EXTT2=
EXTT3=
EXTT4=
EXTT5=
EXTT6=
EXTT7=
EXTT8=
EXTT9=
EXTT10=
EXTT11=
EXTT12=
EXTT13=
PLAYORDER=
